<?xml version="1.0" encoding="UTF-8" standalone="no"?>
<!-- Created with Inkscape (http://www.inkscape.org/) -->

<svg
   width="48mm"
   height="48mm"
   viewBox="0 0 48 48"
   version="1.1"
   id="svg1"
   xml:space="preserve"
   inkscape:export-filename="nowaitingperiod.svg"
   inkscape:export-xdpi="89.677864"
   inkscape:export-ydpi="89.677864"
   xmlns:inkscape="http://www.inkscape.org/namespaces/inkscape"
   xmlns:sodipodi="http://sodipodi.sourceforge.net/DTD/sodipodi-0.dtd"
   xmlns="http://www.w3.org/2000/svg"
   xmlns:svg="http://www.w3.org/2000/svg"><sodipodi:namedview
     id="namedview1"
     pagecolor="#ffffff"
     bordercolor="#000000"
     borderopacity="0.25"
     inkscape:showpageshadow="2"
     inkscape:pageopacity="0.0"
     inkscape:pagecheckerboard="0"
     inkscape:deskcolor="#d1d1d1"
     inkscape:document-units="mm"
     showgrid="true"
     showguides="true"><inkscape:grid
       id="grid1"
       units="mm"
       originx="0"
       originy="0"
       spacingx="0.99999997"
       spacingy="0.99999997"
       empcolor="#0099e5"
       empopacity="0.30196078"
       color="#0099e5"
       opacity="0.14901961"
       empspacing="5"
       enabled="true"
       visible="true" /><sodipodi:guide
       position="1.0120818,36.775092"
       orientation="1,0"
       id="guide1"
       inkscape:locked="false" /><sodipodi:guide
       position="13.98513,47.171932"
       orientation="0,-1"
       id="guide2"
       inkscape:locked="false" /><sodipodi:guide
       position="46.923791,30.518586"
       orientation="1,0"
       id="guide3"
       inkscape:locked="false" /><sodipodi:guide
       position="2.0241635,1.0762081"
       orientation="0,-1"
       id="guide4"
       inkscape:locked="false" /><inkscape:page
       x="0"
       y="0"
       width="48"
       height="48"
       id="page2"
       margin="0"
       bleed="0" /></sodipodi:namedview><defs
     id="defs1" /><g
     inkscape:label="Layer 1"
     inkscape:groupmode="layer"
     id="layer1"><path
       style="fill:#4fc29d;fill-opacity:0.434122;stroke-width:0.200369;stroke-linecap:round;stroke-linejoin:round"
       id="path4"
       sodipodi:type="arc"
       sodipodi:cx="30.348515"
       sodipodi:cy="-25.012081"
       sodipodi:rx="8.1598511"
       sodipodi:ry="8.1598511"
       sodipodi:start="0.088054481"
       sodipodi:end="0.079659199"
       sodipodi:open="true"
       sodipodi:arc-type="arc"
       d="m 38.476752,-24.294498 a 8.1598511,8.1598511 0 0 1 -8.828759,7.412142 8.1598511,8.1598511 0 0 1 -7.430656,-8.813183 8.1598511,8.1598511 0 0 1 8.797568,-7.449137 8.1598511,8.1598511 0 0 1 7.467585,8.781915"
       transform="scale(1,-1)" /><path
       style="fill:#253393;fill-opacity:1"
       d="m 21.670837,45.989272 c -1.393867,-0.272214 -2.530161,-1.46335 -2.765236,-2.898699 -0.04526,-0.276344 -0.08251,-1.767327 -0.08279,-3.313296 -6.13e-4,-3.449874 -0.128098,-4.603663 -0.746208,-6.75347 -0.606471,-2.109326 -1.422748,-3.732921 -3.079757,-6.125716 -1.164954,-1.682244 -1.816781,-3.134179 -2.140328,-4.767543 -0.182056,-0.919074 -0.160466,-3.434949 0.03741,-4.359105 0.856686,-4.001112 3.751595,-7.246178 7.611605,-8.5322744 1.165698,-0.388393 1.908879,-0.48835 3.582235,-0.481808 1.667474,0.0065 2.432886,0.121067 3.625394,0.542557 4.566146,1.6138954 7.601602,5.8798134 7.594236,10.6726584 -0.0039,2.563357 -0.606868,4.439103 -2.150303,6.689715 -1.658064,2.417764 -2.409555,3.843892 -3.055563,5.798639 -0.724155,2.191211 -0.920948,3.794653 -0.920948,7.503743 0,1.501154 -0.03914,2.93576 -0.08698,3.188013 -0.268419,1.415366 -1.363313,2.546745 -2.744213,2.835658 -0.537766,0.112511 -4.103569,0.113219 -4.678554,9.28e-4 z m 4.7907,-1.534418 0.345276,-0.157244 -0.345276,-0.05683 c -0.860462,-0.141624 -5.76337,-0.665594 -5.808242,-0.620722 -0.09762,0.09762 0.621869,0.7353 0.968362,0.858265 0.267387,0.09489 0.846122,0.125758 2.42295,0.129222 1.826323,0.004 2.112543,-0.01407 2.41693,-0.152691 z m 1.251624,-1.850044 v -0.285436 l -3.603814,-0.408112 c -1.982098,-0.224462 -3.65483,-0.406764 -3.717183,-0.405116 -0.07548,0.002 -0.104328,0.09675 -0.08632,0.283534 l 0.02705,0.280537 3.409597,0.399868 c 4.291682,0.503318 3.97067,0.492426 3.97067,0.134725 z m 0,-2.519928 v -0.733711 h -3.711713 -3.711713 v 0.345276 c 0,0.299279 0.02587,0.345832 0.194217,0.349454 0.10682,0.0023 1.612006,0.172591 3.344858,0.37843 1.732852,0.205838 3.315725,0.378754 3.517496,0.384257 l 0.366855,0.01 z m 0.04266,-3.042742 c 0.282456,-4.044814 1.493635,-7.331947 4.015398,-10.897762 0.38611,-0.545967 0.89232,-1.381103 1.12491,-1.855857 1.540139,-3.14368 1.221688,-7.06286 -0.80949,-9.962398 -0.917693,-1.310021 -2.40272,-2.545451 -3.942004,-3.279449 -2.665405,-1.2709814 -6.137492,-1.1823364 -8.718089,0.222579 -3.27688,1.783983 -5.268922,5.050648 -5.281045,8.660163 -0.008,2.39292 0.551245,4.033909 2.150008,6.308325 2.500445,3.557158 3.624892,6.664337 3.956829,10.933878 l 0.05537,0.712131 h 3.694673 3.694674 z m -7.155747,-5.105309 c -0.08141,-0.08995 -0.316863,-0.60463 -0.523236,-1.143725 -0.73496,-1.91989 -1.51789,-3.373473 -2.787513,-5.175279 -0.768662,-1.090859 -1.142898,-1.744502 -1.142898,-1.996194 0,-0.236101 0.463716,-0.671055 0.71543,-0.671055 0.259229,0 0.626927,0.278923 0.794249,0.602489 0.06882,0.133083 0.47129,0.741439 0.894377,1.351901 1.267382,1.828675 1.971541,3.10221 2.65442,4.800762 0.567,1.410319 0.641409,1.70553 0.509166,2.020045 -0.06069,0.144348 -0.176115,0.287687 -0.25649,0.31853 -0.286306,0.109865 -0.708729,0.05692 -0.857505,-0.107474 z m 9.32586,-6.575588 c -0.330131,-0.259682 -0.30919,-0.693705 0.06014,-1.246512 0.158169,-0.236743 0.414374,-0.670043 0.569344,-0.962889 0.334136,-0.631418 0.62353,-0.806232 1.04539,-0.631492 0.564431,0.233795 0.569507,0.706672 0.01828,1.703064 -0.706893,1.277773 -1.142821,1.570724 -1.693158,1.137829 z M 15.734596,21.856978 c -0.204019,-0.08209 -0.366549,-0.538271 -0.420914,-1.181411 -0.02976,-0.352061 -0.02838,-0.742645 0.0031,-0.867964 0.197543,-0.787074 1.2609,-0.743429 1.382213,0.05673 0.02342,0.154483 0.06455,0.564979 0.09141,0.912213 0.04734,0.612179 0.04114,0.639027 -0.204606,0.884769 -0.241942,0.241942 -0.556461,0.31424 -0.851182,0.19566 z m 15.906076,-0.478079 c -0.321639,-0.18446 -0.367041,-0.352404 -0.413863,-1.530914 -0.05533,-1.392661 -0.183412,-1.91331 -0.755039,-3.069209 -1.095195,-2.214616 -3.32611,-3.77303 -5.689594,-3.974487 -0.932771,-0.07951 -1.118775,-0.125121 -1.298982,-0.318551 -0.243808,-0.261696 -0.225588,-0.711175 0.03958,-0.976339 0.178931,-0.178931 0.294259,-0.211874 0.741732,-0.211874 0.699834,0 2.108923,0.292504 2.924811,0.607144 1.996126,0.769788 3.860531,2.545651 4.763637,4.537409 0.493626,1.088669 0.701121,2.086723 0.712993,3.429512 l 0.01055,1.193798 -0.24219,0.208884 c -0.262349,0.226271 -0.521871,0.260484 -0.793635,0.104627 z M 8.3306423,29.38526 c -0.269482,-0.269481 -0.27676,-0.657076 -0.01766,-0.940319 0.271048,-0.296299 3.6468397,-2.218072 3.9957247,-2.274689 0.595762,-0.09668 0.993654,0.757817 0.546748,1.174173 -0.100919,0.09402 -0.995001,0.639342 -1.98685,1.211827 -1.9505677,1.125849 -2.1695857,1.197389 -2.5379657,0.829008 z M 37.134454,28.563423 c -0.966354,-0.5624 -1.850044,-1.10344 -1.963756,-1.202311 -0.476143,-0.414001 -0.09082,-1.290549 0.523488,-1.19086 0.348885,0.05662 3.724676,1.97839 3.995724,2.274689 0.259103,0.283243 0.251826,0.670838 -0.01766,0.940319 -0.374588,0.374588 -0.616794,0.296152 -2.5378,-0.821837 z M 6.2275833,20.784829 c -0.63406,-0.253518 -0.56599,-1.165294 0.09947,-1.332313 0.108904,-0.02733 1.181578,-0.03803 2.383719,-0.02378 2.1785667,0.02584 2.1862507,0.02659 2.3505957,0.229702 0.09069,0.112079 0.164884,0.31283 0.164884,0.446114 0,0.728831 -0.163446,0.775495 -2.6931787,0.768896 -1.153636,-0.003 -2.191105,-0.04289 -2.305486,-0.08862 z m 30.9374987,-0.0056 c -0.416817,-0.227981 -0.52146,-0.752621 -0.223551,-1.120806 0.164345,-0.203115 0.172029,-0.203866 2.350596,-0.229702 1.202142,-0.01426 2.274815,-0.0036 2.383719,0.02378 0.314357,0.0789 0.539188,0.360329 0.536147,0.671118 -0.0033,0.338692 -0.147185,0.545473 -0.463083,0.665578 -0.325541,0.12377 -4.355338,0.115011 -4.583828,-0.01 z M 12.102069,14.089102 c -0.426744,-0.1816 -3.7100257,-2.139509 -3.8322427,-2.285269 -0.354525,-0.422819 -0.01588,-1.11054 0.546853,-1.11054 0.320328,0 3.9995367,2.075723 4.1380907,2.334613 0.131134,0.245026 0.09931,0.649198 -0.06688,0.849364 -0.154899,0.186567 -0.577493,0.300485 -0.785819,0.211832 z m 23.234379,-0.02671 c -0.336701,-0.141493 -0.483792,-0.66925 -0.288322,-1.034489 0.138554,-0.25889 3.817762,-2.334613 4.13809,-2.334613 0.56273,0 0.901378,0.687721 0.546853,1.11054 -0.194851,0.232387 -3.701951,2.256692 -3.989575,2.302791 -0.120159,0.01926 -0.30333,-6.45e-4 -0.407046,-0.04423 z M 16.935623,9.1069246 c -0.244406,-0.135529 -2.429255,-3.88482 -2.429255,-4.168703 0,-0.105219 0.09207,-0.29835 0.204611,-0.429181 0.253644,-0.294879 0.7455,-0.329078 1.000327,-0.06955 0.310565,0.31629 2.247818,3.782423 2.247818,4.021796 0,0.349857 -0.08214,0.499035 -0.351449,0.638302 -0.295668,0.152895 -0.407362,0.154115 -0.672052,0.0073 z m 13.496584,0.01927 c -0.619037,-0.338587 -0.553484,-0.610496 0.652836,-2.707927 0.5727,-0.995752 1.115645,-1.886204 1.206547,-1.978781 0.254827,-0.259525 0.746683,-0.225327 1.000327,0.06955 0.112536,0.130831 0.204611,0.323962 0.204611,0.429181 0,0.283882 -2.184849,4.033174 -2.429255,4.168703 -0.24867,0.137893 -0.409281,0.142767 -0.635066,0.01927 z m -6.732875,-1.812697 c -0.380612,-0.208179 -0.388435,-0.261383 -0.388435,-2.641544 0,-1.292371 0.03589,-2.3436923 0.08302,-2.4317517 0.140685,-0.2628719 0.562853,-0.3908903 0.869787,-0.2637543 0.14424,0.059746 0.299614,0.1784358 0.345275,0.2637543 0.09068,0.1694442 0.117628,4.5507507 0.0294,4.7806687 -0.05727,0.149228 -0.468257,0.394028 -0.654225,0.389677 -0.0617,-0.0014 -0.189872,-0.04512 -0.284822,-0.09705 z"
       id="path7" /></g></svg>
