<?xml version="1.0" encoding="UTF-8" standalone="no"?>
<!-- Created with Inkscape (http://www.inkscape.org/) -->

<svg
   width="48mm"
   height="48mm"
   viewBox="0 0 48 48"
   version="1.1"
   id="svg1"
   xml:space="preserve"
   inkscape:export-filename="personal.svg"
   inkscape:export-xdpi="89.677864"
   inkscape:export-ydpi="89.677864"
   xmlns:inkscape="http://www.inkscape.org/namespaces/inkscape"
   xmlns:sodipodi="http://sodipodi.sourceforge.net/DTD/sodipodi-0.dtd"
   xmlns="http://www.w3.org/2000/svg"
   xmlns:svg="http://www.w3.org/2000/svg"><sodipodi:namedview
     id="namedview1"
     pagecolor="#ffffff"
     bordercolor="#000000"
     borderopacity="0.25"
     inkscape:showpageshadow="2"
     inkscape:pageopacity="0.0"
     inkscape:pagecheckerboard="0"
     inkscape:deskcolor="#d1d1d1"
     inkscape:document-units="mm"
     showgrid="true"
     showguides="true"
     inkscape:zoom="1.4378367"
     inkscape:cx="61.203056"
     inkscape:cy="75.460586"
     inkscape:window-width="1920"
     inkscape:window-height="1009"
     inkscape:window-x="-8"
     inkscape:window-y="-8"
     inkscape:window-maximized="1"
     inkscape:current-layer="layer1"><inkscape:grid
       id="grid1"
       units="mm"
       originx="0"
       originy="0"
       spacingx="0.99999997"
       spacingy="0.99999997"
       empcolor="#0099e5"
       empopacity="0.30196078"
       color="#0099e5"
       opacity="0.14901961"
       empspacing="5"
       enabled="true"
       visible="true" /><sodipodi:guide
       position="1.0120818,36.775092"
       orientation="1,0"
       id="guide1"
       inkscape:locked="false" /><sodipodi:guide
       position="13.98513,47.171932"
       orientation="0,-1"
       id="guide2"
       inkscape:locked="false" /><sodipodi:guide
       position="46.923791,30.518586"
       orientation="1,0"
       id="guide3"
       inkscape:locked="false" /><sodipodi:guide
       position="2.0241635,1.0762081"
       orientation="0,-1"
       id="guide4"
       inkscape:locked="false" /><inkscape:page
       x="0"
       y="0"
       width="48"
       height="48"
       id="page2"
       margin="0"
       bleed="0" /></sodipodi:namedview><defs
     id="defs1" /><g
     inkscape:label="Layer 1"
     inkscape:groupmode="layer"
     id="layer1"><path
       style="fill:#4fc29d;fill-opacity:0.434122;stroke-width:0.200369;stroke-linecap:round;stroke-linejoin:round"
       id="path4"
       sodipodi:type="arc"
       sodipodi:cx="30.348515"
       sodipodi:cy="-25.012081"
       sodipodi:rx="8.1598511"
       sodipodi:ry="8.1598511"
       sodipodi:start="0.088054481"
       sodipodi:end="0.079659199"
       sodipodi:open="true"
       sodipodi:arc-type="arc"
       d="m 38.476752,-24.294498 a 8.1598511,8.1598511 0 0 1 -8.828759,7.412142 8.1598511,8.1598511 0 0 1 -7.430656,-8.813183 8.1598511,8.1598511 0 0 1 8.797568,-7.449137 8.1598511,8.1598511 0 0 1 7.467585,8.781915"
       transform="scale(1,-1)" /><path
       style="fill:#253393;fill-opacity:1;stroke-width:0.941391"
       d="M 5.4360515,45.964177 C 3.9662622,45.453948 2.9285658,44.528533 2.2718467,43.142342 L 1.884075,42.323842 1.851578,26.891288 C 1.8160563,10.024688 1.785285,10.83151 2.5113893,9.5925152 3.1857721,8.4417691 4.7234362,7.3456035 5.9277987,7.1570348 7.0123741,6.9872235 6.9253485,7.0913511 7.0045607,5.868687 7.1212109,4.0681244 7.8494343,2.870706 9.2457485,2.1834811 L 9.8489868,1.8865844 23.840175,1.8544328 c 13.895973,-0.031941 13.99581,-0.030432 14.670267,0.2219142 1.481992,0.5544832 2.3666,1.9022847 2.489053,3.7923509 0.07921,1.2226631 -0.0079,1.1185366 1.076763,1.2883478 1.769696,0.2770818 3.510123,1.967998 3.979101,3.8659033 0.09492,0.384142 0.124182,5.06473 0.09953,15.922493 l -0.03491,15.37841 -0.390278,0.823858 c -0.542368,1.144913 -1.342504,1.960065 -2.471858,2.518244 l -0.92373,0.456551 -18.141889,0.02746 C 7.2279384,46.175646 6.0104578,46.163584 5.4360445,45.964182 Z M 10.890555,33.076504 V 22.542525 L 9.4507441,22.098583 C 8.6588477,21.854415 7.2343431,21.411384 6.2851781,21.114071 5.3360131,20.816756 4.5226737,20.573499 4.4777557,20.573499 c -0.1438602,0 -0.094372,20.719383 0.050743,21.241972 0.1615752,0.581894 1.0463404,1.494724 1.604666,1.655566 0.2240295,0.06454 1.3860913,0.122315 2.5823618,0.128393 l 2.1750345,0.011 z m 23.527133,0.424664 c 0,-5.560122 -0.01378,-10.109166 -0.03063,-10.108985 -0.01685,1.83e-4 -1.161038,0.347512 -2.542644,0.771844 l -2.512014,0.771512 -0.09507,0.954004 c -0.15081,1.513315 -0.711677,2.396368 -1.926792,3.033635 -0.531965,0.278988 -0.648677,0.289191 -3.308503,0.289191 -2.748836,0 -2.758919,-9.42e-4 -3.369772,-0.325552 -1.168799,-0.621042 -1.71651,-1.501189 -1.86543,-2.997662 l -0.09518,-0.956286 -2.266937,-0.70339 C 15.157901,23.842615 14.01371,23.494835 13.86207,23.456635 l -0.275709,-0.06946 V 33.49883 43.610478 H 24.002022 34.41768 Z m 7.942603,9.710023 c 0.280702,-0.185914 0.662476,-0.567851 0.848391,-0.84875 l 0.338023,-0.510725 0.03326,-10.639109 c 0.01829,-5.851509 0.0055,-10.639108 -0.0283,-10.639108 -0.06049,0 -4.716445,1.425267 -5.856111,1.792656 l -0.582053,0.187634 v 10.537716 10.537716 l 2.36821,-0.04 c 2.349979,-0.0397 2.372139,-0.04261 2.878578,-0.378028 z M 26.428266,26.430775 c 0.207281,-0.207282 0.207281,-4.645189 0,-4.852471 -0.207283,-0.207282 -4.645189,-0.207282 -4.852471,0 -0.207282,0.207282 -0.207282,4.645189 0,4.852471 0.207282,0.207282 4.645188,0.207282 4.852471,0 z m -7.627993,-4.723808 c 0.207468,-1.215321 0.847595,-2.116902 1.860122,-2.61988 0.562763,-0.279554 0.68731,-0.290378 3.341635,-0.290378 2.755236,0 2.757504,2.23e-4 3.380803,0.32911 1.003882,0.529705 1.635294,1.423032 1.824377,2.581148 0.04125,0.252732 0.113877,0.460351 0.161373,0.46137 0.04749,10e-4 3.270785,-0.976112 7.162871,-2.171403 l 7.07652,-2.173259 v -3.040359 c 0,-2.471445 -0.03561,-3.125611 -0.190307,-3.495941 -0.239973,-0.574478 -0.721047,-1.084999 -1.305892,-1.3858288 -0.441167,-0.226926 -0.977557,-0.233853 -18.109745,-0.233853 -17.1321882,0 -17.6685783,0.007 -18.1097447,0.233853 C 5.307439,10.202376 4.8263659,10.712897 4.5863926,11.287375 4.4317111,11.65767 4.3960864,12.311633 4.3960864,14.780837 v 3.037886 l 7.0152526,2.165934 c 3.858389,1.191265 7.081681,2.169511 7.16287,2.17388 0.0812,0.0044 0.182919,-0.198838 0.226064,-0.45157 z M 38.336151,6.0834815 c -0.0029,-0.9401407 -0.150882,-1.2703512 -0.693808,-1.548007 -0.192308,-0.098351 -4.039376,-0.1368787 -13.66626,-0.1368787 -12.422904,0 -13.420673,0.015198 -13.701582,0.2088169 C 9.7529925,4.9668489 9.6731263,5.1615708 9.6690814,6.0834815 l -0.00382,0.8883948 H 24.002074 38.33892 Z"
       id="path9" /></g></svg>
