<?xml version="1.0" encoding="UTF-8" standalone="no"?>
<!-- Created with Inkscape (http://www.inkscape.org/) -->

<svg
   width="42.251984mm"
   height="45.31776mm"
   viewBox="0 0 42.251984 45.31776"
   version="1.1"
   id="svg1"
   xml:space="preserve"
   inkscape:export-filename="plans.svg"
   inkscape:export-xdpi="89.677864"
   inkscape:export-ydpi="89.677864"
   xmlns:inkscape="http://www.inkscape.org/namespaces/inkscape"
   xmlns:sodipodi="http://sodipodi.sourceforge.net/DTD/sodipodi-0.dtd"
   xmlns="http://www.w3.org/2000/svg"
   xmlns:svg="http://www.w3.org/2000/svg"><sodipodi:namedview
     id="namedview1"
     pagecolor="#ffffff"
     bordercolor="#000000"
     borderopacity="0.25"
     inkscape:showpageshadow="2"
     inkscape:pageopacity="0.0"
     inkscape:pagecheckerboard="0"
     inkscape:deskcolor="#d1d1d1"
     inkscape:document-units="mm"
     showgrid="true"
     showguides="true"><inkscape:grid
       id="grid1"
       units="mm"
       originx="-2.8740088"
       originy="-1.3411202"
       spacingx="0.99999997"
       spacingy="0.99999997"
       empcolor="#0099e5"
       empopacity="0.30196078"
       color="#0099e5"
       opacity="0.14901961"
       empspacing="5"
       enabled="true"
       visible="true" /><sodipodi:guide
       position="-1.861927,35.433974"
       orientation="1,0"
       id="guide1"
       inkscape:locked="false" /><sodipodi:guide
       position="11.111121,45.830814"
       orientation="0,-1"
       id="guide2"
       inkscape:locked="false" /><sodipodi:guide
       position="44.049784,29.177467"
       orientation="1,0"
       id="guide3"
       inkscape:locked="false" /><sodipodi:guide
       position="-0.84984529,-0.26491119"
       orientation="0,-1"
       id="guide4"
       inkscape:locked="false" /><inkscape:page
       x="0"
       y="0"
       width="42.251984"
       height="45.31776"
       id="page2"
       margin="0"
       bleed="0" /></sodipodi:namedview><defs
     id="defs1" /><g
     inkscape:label="Layer 1"
     inkscape:groupmode="layer"
     id="layer1"
     transform="translate(-2.8740089,-1.3411203)"><path
       style="fill:#4fc29d;fill-opacity:0.434122;stroke-width:0.200369;stroke-linecap:round;stroke-linejoin:round"
       id="path4"
       sodipodi:type="arc"
       sodipodi:cx="30.348515"
       sodipodi:cy="-25.012081"
       sodipodi:rx="8.1598511"
       sodipodi:ry="8.1598511"
       sodipodi:start="0.088054481"
       sodipodi:end="0.079659199"
       sodipodi:open="true"
       sodipodi:arc-type="arc"
       d="m 38.476752,-24.294498 a 8.1598511,8.1598511 0 0 1 -8.828759,7.412142 8.1598511,8.1598511 0 0 1 -7.430656,-8.813183 8.1598511,8.1598511 0 0 1 8.797568,-7.449137 8.1598511,8.1598511 0 0 1 7.467585,8.781915"
       transform="scale(1,-1)" /><path
       style="fill:#253393;fill-opacity:1"
       d="m 3.6794139,46.44254 c -0.192569,-0.128005 -0.452564,-0.435509 -0.577765,-0.683343 l -0.22764,-0.450607 v -5.527176 -5.527176 l 0.232975,-0.440563 c 0.159239,-0.301125 0.372414,-0.514301 0.673539,-0.673539 0.427064,-0.225837 0.520804,-0.232976 3.059184,-0.232976 2.408969,0 2.6500177,0.01602 3.0107637,0.200056 0.3867944,0.197328 0.8138754,0.676949 0.8138754,0.913999 0,0.07503 0.06788,0.09491 0.177053,0.05186 0.09738,-0.0384 1.451836,-0.547909 3.009903,-1.132243 1.558068,-0.584334 3.857229,-1.485066 5.109247,-2.001625 2.94432,-1.214771 2.936386,-1.212343 3.945755,-1.207563 1.085473,0.0051 4.247962,0.709957 4.899932,1.092037 0.510061,0.298916 1.111335,0.940898 1.350016,1.441417 0.171901,0.360481 0.172438,0.360709 0.702362,0.298427 0.291681,-0.03428 0.774303,-0.153612 1.072493,-0.26518 0.298191,-0.111567 2.548851,-1.360889 5.001466,-2.77627 2.794256,-1.612538 4.676496,-2.636561 5.040987,-2.742521 1.079118,-0.313708 2.342798,0.03028 3.177467,0.864953 1.38223,1.382229 1.28181,3.628747 -0.21892,4.897537 -0.479394,0.405302 -10.225986,7.998364 -11.6318,9.061729 -1.786128,1.351035 -3.498095,2.193372 -5.554154,2.732802 -2.376881,0.6236 -3.90726,0.643479 -7.229151,0.0939 -2.261912,-0.374213 -5.159255,-0.498068 -7.041339,-0.301003 -1.814264,0.189965 -1.710143,0.141813 -1.710143,0.790879 0,0.626141 -0.248669,1.16454 -0.689767,1.493434 -0.2541324,0.189486 -0.4548864,0.204225 -3.1587961,0.231919 -2.867877,0.02937 -2.889787,0.028 -3.237543,-0.203164 z m 5.649446,-1.212483 c 0.1412917,-0.141292 0.1769247,-10.56119 0.03687,-10.781845 -0.06293,-0.09915 -0.6432037,-0.12214 -2.5530747,-0.101173 l -2.471636,0.02713 -0.0263,5.36218 c -0.01446,2.949199 -0.0045,5.41909 0.02212,5.488646 0.06811,0.177911 4.814359,0.182721 4.992021,0.0051 z M 25.486122,43.222204 c 1.924656,-0.37142 3.685587,-1.111666 5.311693,-2.232888 0.472984,-0.326129 3.477829,-2.634396 6.677431,-5.129481 6.263138,-4.884064 6.267859,-4.888434 6.271075,-5.804231 0.0021,-0.607908 -0.134196,-0.960247 -0.535701,-1.384489 -0.613494,-0.648237 -1.529668,-0.808613 -2.31898,-0.405936 -0.23107,0.117883 -2.152812,1.217179 -4.270537,2.44288 -5.028076,2.910159 -5.283345,3.035806 -6.474033,3.186616 l -0.590599,0.0748 -0.220824,0.68195 c -0.464477,1.434405 -1.738984,2.403833 -3.16032,2.403833 -0.240713,0 -1.051618,-0.136584 -1.802011,-0.30352 -0.750393,-0.166936 -1.502171,-0.303519 -1.670618,-0.303519 -0.168446,0 -1.06131,0.318375 -1.98414,0.707499 -1.738132,0.732909 -2.058327,0.789476 -2.266543,0.400419 -0.138423,-0.258645 -0.122587,-0.759638 0.02796,-0.884571 0.26185,-0.217297 3.540754,-1.545822 3.949342,-1.60017 0.293261,-0.03901 0.939901,0.05693 2.07099,0.307271 1.48047,0.327663 1.691772,0.352107 2.117372,0.24494 1.334682,-0.336077 1.925185,-1.924213 1.130453,-3.040312 -0.378459,-0.531496 -0.746343,-0.688962 -2.589034,-1.108191 -2.533527,-0.576399 -2.600048,-0.568836 -5.430069,0.617405 -1.21887,0.510906 -3.654615,1.468546 -5.412766,2.128089 -1.758152,0.659544 -3.276313,1.230567 -3.373692,1.268941 -0.164118,0.06467 -0.177053,0.339786 -0.177053,3.765519 v 3.69575 l 0.44226,-0.06062 c 2.333984,-0.319908 5.104757,-0.322886 7.14573,-0.0077 0.584275,0.09023 1.58589,0.245901 2.225811,0.345925 1.639043,0.256194 3.559579,0.253755 4.906801,-0.0062 z M 20.545112,28.55923 C 15.019058,26.585097 11.7353,22.86644 10.46835,17.147907 9.9844516,14.963776 9.6802136,10.873533 9.8090976,8.2847812 c 0.08232,-1.653427 0.119698,-1.72052 1.0189794,-1.828902 3.353939,-0.404219 7.074266,-2.037115 9.997345,-4.387952 0.648807,-0.521793 0.985399,-0.726807 1.193267,-0.726807 0.206862,0 0.526604,0.192998 1.119737,0.675879 2.863209,2.330995 6.286435,3.870791 9.771568,4.395335 1.306498,0.19664 1.2709,0.13469 1.310127,2.279985 0.077,4.2111088 -0.353675,7.8480538 -1.245798,10.5204678 -1.30728,3.916047 -3.76404,6.677995 -7.589275,8.532042 -1.361185,0.659751 -2.94283,1.21924 -3.424421,1.211351 -0.175443,-0.0029 -0.812425,-0.181502 -1.415515,-0.39695 z m 4.384657,-2.110264 c 1.561881,-0.781684 2.401099,-1.390381 3.642235,-2.641763 1.282938,-1.293531 1.972681,-2.299503 2.643493,-3.855465 1.110871,-2.576688 1.553215,-5.29496 1.55444,-9.552255 l 7.55e-4,-2.6271428 -0.708212,-0.120009 c -3.173832,-0.537816 -6.822252,-2.190171 -9.376472,-4.246564 l -0.675575,-0.543904 -0.568381,0.463 c -2.547126,2.074874 -6.284495,3.776883 -9.513041,4.332265 l -0.708212,0.121828 -0.03104,1.612103 c -0.05598,2.9071638 0.220532,5.8488668 0.747937,7.9568868 1.239585,4.954581 4.182202,8.174707 9.046322,9.899454 l 1.062319,0.376682 0.961146,-0.347043 c 0.52863,-0.190874 1.393661,-0.563507 1.922291,-0.828073 z m -5.109247,-3.194908 c -0.408368,-0.1815 -0.74256,-0.560692 -0.862389,-0.978509 -0.05432,-0.18939 -0.09876,-1.081716 -0.09876,-1.982946 v -1.6386 l -1.9144,-0.03143 c -1.882319,-0.0309 -1.918933,-0.03566 -2.184837,-0.284358 -0.52203,-0.488243 -0.554742,-0.65057 -0.554573,-2.751946 1.73e-4,-2.148824 0.06386,-2.433383 0.639245,-2.855976 0.259743,-0.19077 0.451585,-0.212356 2.141827,-0.241002 l 1.856531,-0.03146 0.0335,-1.789654 c 0.03732,-1.9935528 0.116542,-2.2850878 0.721122,-2.6537218 0.293516,-0.178967 0.519434,-0.197529 2.408283,-0.197872 1.998914,-3.63e-4 2.098478,0.009 2.428157,0.229278 0.619476,0.413837 0.697547,0.713609 0.697724,2.6790738 l 1.57e-4,1.745238 1.745238,1.57e-4 c 1.965464,1.77e-4 2.265236,0.07825 2.679073,0.697724 0.220267,0.329719 0.229629,0.428996 0.22899,2.428157 -5.99e-4,1.871449 -0.02015,2.113928 -0.191349,2.373606 -0.412821,0.626162 -0.585667,0.670522 -2.615541,0.671255 l -1.846411,6.66e-4 v 1.738588 c 0,1.560821 -0.02178,1.78358 -0.21301,2.178608 -0.365917,0.755885 -0.653134,0.838653 -2.894036,0.833985 -1.357506,-0.0028 -1.987807,-0.04253 -2.204547,-0.138861 z m 3.895168,-3.362611 c 0.04522,-1.912752 0.07083,-2.161933 0.241536,-2.350305 0.180344,-0.199009 0.309588,-0.212227 2.326984,-0.237977 l 2.136034,-0.02726 0.02771,-1.689056 0.02772,-1.689056 -2.174247,-0.03089 c -1.926043,-0.02736 -2.194847,-0.05149 -2.354698,-0.211339 -0.159838,-0.159838 -0.183978,-0.428544 -0.21132,-2.352277 L 23.704539,9.1314612 H 21.990171 20.275802 V 11.24489 c 0,1.929373 -0.01683,2.13423 -0.19323,2.352277 -0.190758,0.235791 -0.221222,0.239243 -2.379992,0.269736 l -2.186761,0.03089 0.02772,1.689056 0.02771,1.689056 2.12037,0.02741 c 2.818036,0.03643 2.584184,-0.194627 2.584184,2.55328 0,1.149577 0.03144,2.121578 0.06986,2.160002 0.03842,0.03843 0.801017,0.0574 1.694651,0.04216 l 1.624788,-0.02771 z"
       id="path1" /></g></svg>
