<?xml version="1.0" encoding="UTF-8" standalone="no"?>
<!-- Created with Inkscape (http://www.inkscape.org/) -->

<svg
   width="48mm"
   height="48mm"
   viewBox="0 0 48 48"
   version="1.1"
   id="svg1"
   xml:space="preserve"
   inkscape:export-filename="trustedinsurer.svg"
   inkscape:export-xdpi="89.677864"
   inkscape:export-ydpi="89.677864"
   xmlns:inkscape="http://www.inkscape.org/namespaces/inkscape"
   xmlns:sodipodi="http://sodipodi.sourceforge.net/DTD/sodipodi-0.dtd"
   xmlns="http://www.w3.org/2000/svg"
   xmlns:svg="http://www.w3.org/2000/svg"><sodipodi:namedview
     id="namedview1"
     pagecolor="#ffffff"
     bordercolor="#000000"
     borderopacity="0.25"
     inkscape:showpageshadow="2"
     inkscape:pageopacity="0.0"
     inkscape:pagecheckerboard="0"
     inkscape:deskcolor="#d1d1d1"
     inkscape:document-units="mm"
     showgrid="true"
     showguides="true"><inkscape:grid
       id="grid1"
       units="mm"
       originx="0"
       originy="0"
       spacingx="0.99999997"
       spacingy="0.99999997"
       empcolor="#0099e5"
       empopacity="0.30196078"
       color="#0099e5"
       opacity="0.14901961"
       empspacing="5"
       enabled="true"
       visible="true" /><sodipodi:guide
       position="1.0120818,36.775092"
       orientation="1,0"
       id="guide1"
       inkscape:locked="false" /><sodipodi:guide
       position="13.98513,47.171932"
       orientation="0,-1"
       id="guide2"
       inkscape:locked="false" /><sodipodi:guide
       position="46.923791,30.518586"
       orientation="1,0"
       id="guide3"
       inkscape:locked="false" /><sodipodi:guide
       position="2.0241635,1.0762081"
       orientation="0,-1"
       id="guide4"
       inkscape:locked="false" /><inkscape:page
       x="0"
       y="0"
       width="48"
       height="48"
       id="page2"
       margin="0"
       bleed="0" /></sodipodi:namedview><defs
     id="defs1" /><g
     inkscape:label="Layer 1"
     inkscape:groupmode="layer"
     id="layer1"><path
       style="fill:#4fc29d;fill-opacity:0.434122;stroke-width:0.200369;stroke-linecap:round;stroke-linejoin:round"
       id="path4"
       sodipodi:type="arc"
       sodipodi:cx="30.348515"
       sodipodi:cy="-25.012081"
       sodipodi:rx="8.1598511"
       sodipodi:ry="8.1598511"
       sodipodi:start="0.088054481"
       sodipodi:end="0.079659199"
       sodipodi:open="true"
       sodipodi:arc-type="arc"
       d="m 38.476752,-24.294498 a 8.1598511,8.1598511 0 0 1 -8.828759,7.412142 8.1598511,8.1598511 0 0 1 -7.430656,-8.813183 8.1598511,8.1598511 0 0 1 8.797568,-7.449137 8.1598511,8.1598511 0 0 1 7.467585,8.781915"
       transform="scale(1,-1)" /><path
       style="fill:#253393;fill-opacity:1"
       d="m 27.082351,40.389898 c -1.38857,-0.15428 -3.30663,-0.67061 -4.74225,-1.27657 -1.0232,-0.4319 -1.291,-0.59443 -1.43353,-0.87004 -0.20278,-0.39213 -0.13709,-0.78607 0.18473,-1.10789 0.31254,-0.31254 0.63162,-0.28013 1.59026,0.16153 1.53437,0.7069 3.3058,1.18442 4.98415,1.34356 l 0.53635,0.0508 v -1.06395 c 0,-0.97908 0.0221,-1.08606 0.27715,-1.34111 0.17471,-0.1747 0.40617,-0.27715 0.62617,-0.27715 0.22,0 0.45145,0.10245 0.62616,0.27715 0.25505,0.25505 0.27716,0.36203 0.27716,1.34111 v 1.06395 l 0.53634,-0.0534 c 1.68969,-0.16831 4.00675,-0.83503 5.5046,-1.58391 0.76247,-0.38121 2.27766,-1.37172 2.80033,-1.83064 l 0.42557,-0.37365 -0.73786,-0.76429 c -0.84514,-0.87541 -0.94747,-1.26439 -0.46071,-1.75116 0.48677,-0.48676 0.87575,-0.38443 1.75116,0.46071 l 0.76429,0.73786 0.37365,-0.42557 c 0.49151,-0.55979 1.45771,-2.05438 1.90729,-2.95034 0.69892,-1.39286 1.30173,-3.5493 1.51259,-5.41105 l 0.0543,-0.47988 h -1.06708 c -0.98239,0 -1.08907,-0.022 -1.34423,-0.27716 -0.36667,-0.36667 -0.36667,-0.88565 0,-1.25233 0.25476,-0.25475 0.36251,-0.27715 1.3334,-0.27715 h 1.05624 l -0.0857,-0.80159 c -0.17595,-1.6467 -0.62622,-3.25844 -1.34483,-4.81389 -0.47097,-1.0194 -1.43465,-2.55676 -2.02208,-3.2258 l -0.37365,-0.42556 -0.76429,0.73786 c -0.87541,0.84513 -1.26439,0.94747 -1.75116,0.4607 -0.48598,-0.48598 -0.38416,-0.87603 0.45582,-1.74609 l 0.73298,-0.759234 -0.30955,-0.288454 c -1.89917,-1.7697745 -5.21672,-3.1469992 -8.46764,-3.5151982 l -0.47988,-0.05435 v 1.0670787 c 0,0.9823945 -0.022,1.0890735 -0.27716,1.3442335 -0.36667,0.366673 -0.88565,0.366673 -1.25233,0 -0.25562,-0.255627 -0.27715,-0.361043 -0.27715,-1.3571295 0,-1.0603027 -0.005,-1.0790147 -0.25406,-1.0273037 -0.13973,0.02897 -0.55893,0.08406 -0.93155,0.122414 -1.09897,0.113132 -2.78166,0.578051 -3.91298,1.0811367 -0.5804,0.258097 -1.2077,0.492159 -1.39401,0.520138 -0.64076,0.09623 -1.16194,-0.724158 -0.83269,-1.3107457 0.31011,-0.552499 3.06117,-1.586689 5.32266,-2.000914 1.41909,-0.259928 4.28327,-0.260406 5.72882,-9.55e-4 5.46254,0.980431 9.85021,4.1498542 12.29327,8.8800252 2.21027,4.27942 2.60647,8.96029 1.13862,13.452078 -2.48836,7.61466 -10.17866,12.49198 -18.27779,11.5921 z m -14.86287,-5.56125 c -0.17471,-0.1747 -0.27716,-0.40616 -0.27716,-0.62616 0,-0.22 0.10245,-0.45146 0.27716,-0.62616 l 0.27715,-0.27716 h 5.20435 5.20435 l 0.27715,0.27716 c 0.17471,0.1747 0.27716,0.40616 0.27716,0.62616 0,0.22 -0.10245,0.45146 -0.27716,0.62616 l -0.27715,0.27716 h -5.20435 -5.20435 z m -5.4199101,-5.41991 c -0.17471,-0.1747 -0.27716,-0.40616 -0.27716,-0.62616 0,-0.22 0.10245,-0.45146 0.27716,-0.62617 l 0.27715,-0.27715 h 7.1699101 c 5.08831,0 7.2512,0.037 7.44988,0.12756 0.15398,0.0702 0.34038,0.27341 0.41422,0.45166 0.17242,0.41627 -0.0168,0.9188 -0.41422,1.09986 -0.19868,0.0905 -2.36157,0.12756 -7.44988,0.12756 H 7.0767209 Z m 18.4863901,-2.24247 c -0.39171,-0.41696 -0.324,-0.90063 0.20666,-1.47634 l 0.45218,-0.49055 -0.19198,-0.43847 c -0.12893,-0.29444 -0.19401,-0.75373 -0.19813,-1.39824 -0.01,-1.5425 0.52983,-2.43069 1.90129,-3.12905 0.77769,-0.396 1.94273,-0.47765 2.83064,-0.19836 l 0.63959,0.20117 2.39834,-2.3889 c 2.134,-2.12559 2.4387,-2.3889 2.76445,-2.3889 0.23815,0 0.46297,0.0969 0.64326,0.27716 0.18029,0.18028 0.27715,0.4051 0.27715,0.64325 0,0.32568 -0.26217,0.62932 -2.37447,2.74996 l -2.37446,2.38386 0.19472,0.44501 c 0.29226,0.66792 0.27112,2.20577 -0.0397,2.88953 -0.71623,1.57555 -2.71947,2.40001 -4.48339,1.84519 l -0.63162,-0.19867 -0.50646,0.46684 c -0.60518,0.55783 -1.11217,0.62692 -1.50806,0.20551 z m 4.71471,-2.30766 c 0.61773,-0.31498 0.85489,-0.72998 0.85489,-1.49594 0,-0.76596 -0.23716,-1.18096 -0.85489,-1.49595 -1.22705,-0.62569 -2.70193,0.19089 -2.70193,1.49595 0,0.98256 0.75836,1.69337 1.80664,1.69337 0.27946,0 0.68234,-0.0888 0.89529,-0.19743 z M 1.3796609,23.988828 c -0.17471,-0.1747 -0.27716,-0.40616 -0.27716,-0.62616 0,-0.22 0.10245,-0.45146 0.27716,-0.62617 l 0.27715,-0.27715 h 9.3822001 9.38219 l 0.27716,0.27715 c 0.36667,0.36668 0.36667,0.88566 0,1.25233 l -0.27716,0.27716 h -9.38219 -9.3822001 z m 5.41991,-5.41991 c -0.17471,-0.17471 -0.27716,-0.40616 -0.27716,-0.62616 0,-0.22 0.10245,-0.45146 0.27716,-0.62617 l 0.27715,-0.27715 h 7.1699101 c 5.08831,0 7.2512,0.037 7.44988,0.12756 0.15398,0.0702 0.34038,0.27341 0.41422,0.45166 0.17242,0.41627 -0.0168,0.91879 -0.41422,1.09985 -0.19868,0.0905 -2.36157,0.12756 -7.44988,0.12756 H 7.0767209 Z m 5.4199101,-5.41991 c -0.17471,-0.17471 -0.27716,-0.40616 -0.27716,-0.62616 0,-0.220005 0.10245,-0.451463 0.27716,-0.626169 l 0.27715,-0.277154 h 5.20435 5.20435 l 0.27715,0.277154 c 0.17471,0.174706 0.27716,0.406164 0.27716,0.626169 0,0.22 -0.10245,0.45145 -0.27716,0.62616 l -0.27715,0.27715 h -5.20435 -5.20435 z"
       id="path6" /></g></svg>
