<?xml version="1.0" encoding="UTF-8" standalone="no"?>
<!-- Created with Inkscape (http://www.inkscape.org/) -->

<svg
   width="48mm"
   height="48mm"
   viewBox="0 0 48 48"
   version="1.1"
   id="svg1"
   xml:space="preserve"
   inkscape:export-filename="buildforbharat.svg"
   inkscape:export-xdpi="89.677864"
   inkscape:export-ydpi="89.677864"
   xmlns:inkscape="http://www.inkscape.org/namespaces/inkscape"
   xmlns:sodipodi="http://sodipodi.sourceforge.net/DTD/sodipodi-0.dtd"
   xmlns="http://www.w3.org/2000/svg"
   xmlns:svg="http://www.w3.org/2000/svg"><sodipodi:namedview
     id="namedview1"
     pagecolor="#ffffff"
     bordercolor="#000000"
     borderopacity="0.25"
     inkscape:showpageshadow="2"
     inkscape:pageopacity="0.0"
     inkscape:pagecheckerboard="0"
     inkscape:deskcolor="#d1d1d1"
     inkscape:document-units="mm"
     showgrid="true"
     showguides="true"
     inkscape:zoom="1.4378367"
     inkscape:cx="61.203056"
     inkscape:cy="75.460586"
     inkscape:window-width="1920"
     inkscape:window-height="1009"
     inkscape:window-x="-8"
     inkscape:window-y="-8"
     inkscape:window-maximized="1"
     inkscape:current-layer="layer1"><inkscape:grid
       id="grid1"
       units="mm"
       originx="0"
       originy="0"
       spacingx="0.99999997"
       spacingy="0.99999997"
       empcolor="#0099e5"
       empopacity="0.30196078"
       color="#0099e5"
       opacity="0.14901961"
       empspacing="5"
       enabled="true"
       visible="true" /><sodipodi:guide
       position="1.0120818,36.775092"
       orientation="1,0"
       id="guide1"
       inkscape:locked="false" /><sodipodi:guide
       position="13.98513,47.171932"
       orientation="0,-1"
       id="guide2"
       inkscape:locked="false" /><sodipodi:guide
       position="46.923791,30.518586"
       orientation="1,0"
       id="guide3"
       inkscape:locked="false" /><sodipodi:guide
       position="2.0241635,1.0762081"
       orientation="0,-1"
       id="guide4"
       inkscape:locked="false" /><inkscape:page
       x="0"
       y="0"
       width="48"
       height="48"
       id="page2"
       margin="0"
       bleed="0" /></sodipodi:namedview><defs
     id="defs1" /><g
     inkscape:label="Layer 1"
     inkscape:groupmode="layer"
     id="layer1"><path
       style="fill:#4fc29d;fill-opacity:0.434122;stroke-width:0.200369;stroke-linecap:round;stroke-linejoin:round"
       id="path4"
       sodipodi:type="arc"
       sodipodi:cx="30.348515"
       sodipodi:cy="-25.012081"
       sodipodi:rx="8.1598511"
       sodipodi:ry="8.1598511"
       sodipodi:start="0.088054481"
       sodipodi:end="0.079659199"
       sodipodi:open="true"
       sodipodi:arc-type="arc"
       d="m 38.476752,-24.294498 a 8.1598511,8.1598511 0 0 1 -8.828759,7.412142 8.1598511,8.1598511 0 0 1 -7.430656,-8.813183 8.1598511,8.1598511 0 0 1 8.797568,-7.449137 8.1598511,8.1598511 0 0 1 7.467585,8.781915"
       transform="scale(1,-1)" /><path
       style="fill:#253393;fill-opacity:1"
       d="M 22.869291,46.274038 C 20.891535,45.557484 19.120394,44.514071 17.84587,43.314644 16.22509,41.789362 14.960009,39.478603 14.561415,37.315358 L 14.45062,36.714056 H 11.306061 8.1615013 l -0.240038,-0.240037 -0.240037,-0.240038 0.04309,-3.458324 c 0.04802,-3.85398 0.103095,-4.29364 0.78231,-6.244974 1.5755917,-4.526559 5.3231707,-7.962042 10.0221167,-9.187483 0.489051,-0.12754 0.901016,-0.243722 0.915478,-0.258183 0.01446,-0.01446 -0.229939,-0.212886 -0.543111,-0.440943 -1.066139,-0.776382 -2.116478,-2.092829 -2.674568,-3.352181 -0.825679,-1.863177 -0.930232,-4.167705 -0.276308,-6.0903212 1.663058,-4.8895921 7.169901,-7.19548171 11.771485,-4.9290931 1.6566,0.8159148 2.927538,2.0439863 3.750769,3.6242625 0.717826,1.3779415 1.008523,2.5344498 1.006395,4.0038278 -0.0038,2.628642 -1.311153,5.236645 -3.380393,6.743505 -0.313173,0.228057 -0.554809,0.429244 -0.536971,0.447082 0.01784,0.01784 0.366199,0.112277 0.774138,0.209865 4.653887,1.11331 8.571196,4.672856 10.157315,9.229662 0.679215,1.951334 0.734291,2.390994 0.782312,6.244974 l 0.04309,3.458324 -0.240037,0.240038 -0.240038,0.240037 H 36.69394 33.54938 l -0.111317,0.604145 c -0.395961,2.148948 -1.672562,4.480017 -3.283932,5.996443 -1.287509,1.211647 -3.182009,2.316549 -5.14871,3.002808 -0.45759,0.159672 -0.924008,0.288195 -1.036483,0.285607 -0.112475,-0.0026 -0.607316,-0.150647 -1.099647,-0.329021 z m 1.80823,-1.421938 c 3.834346,-1.380924 6.237557,-3.82995 7.203117,-7.340439 l 0.258257,-0.938943 0.03668,-3.826622 0.03668,-3.826621 -1.868261,-0.05375 C 27.876718,28.794742 26.46841,28.495569 24.644841,27.655032 L 24,27.357805 23.355158,27.655032 c -1.823569,0.840537 -3.231878,1.13971 -5.699144,1.210693 l -1.868261,0.05375 0.03695,3.826621 c 0.03636,3.765833 0.04083,3.84102 0.281417,4.732969 0.940536,3.487014 3.17738,5.805332 7.045845,7.302481 0.440505,0.170481 0.808992,0.31191 0.81886,0.314286 0.0099,0.0024 0.327879,-0.107304 0.706693,-0.243732 z m -3.053202,-7.643005 c -0.71895,-0.712388 -1.331373,-1.391637 -1.36094,-1.509441 -0.130301,-0.519161 0.427209,-1.068732 0.926458,-0.913265 0.120424,0.0375 0.632956,0.473879 1.138959,0.969731 l 0.920005,0.901547 1.724104,-1.714982 c 1.522948,-1.51489 1.759658,-1.714983 2.028833,-1.714983 0.38503,0 0.767292,0.36054 0.767292,0.723687 0,0.214888 -0.379973,0.641098 -2.145916,2.407041 -1.810308,1.810308 -2.188588,2.145916 -2.418765,2.145916 -0.224353,0 -0.505187,-0.230217 -1.58003,-1.295251 z M 14.294744,31.480242 V 27.75404 l 0.226858,-0.226857 0.226858,-0.226858 1.77544,0.05569 c 2.758171,0.08651 4.462417,-0.223051 6.303053,-1.144884 0.572693,-0.286818 1.102713,-0.52161 1.177823,-0.521761 0.07511,-1.5e-4 0.60298,0.233471 1.173046,0.519158 1.844791,0.924514 3.542966,1.233905 6.298277,1.147487 l 1.775441,-0.05569 0.226857,0.226858 0.226859,0.226857 v 3.726202 3.726202 h 2.544096 2.544097 l -5.56e-4,-2.473427 c -7.93e-4,-3.530963 -0.244721,-4.878395 -1.270869,-7.020146 -0.700626,-1.462332 -1.331591,-2.344398 -2.544325,-3.556874 -1.921188,-1.92078 -4.162235,-3.100896 -6.831764,-3.59755 -1.309696,-0.243663 -6.982177,-0.242593 -8.277879,0.0016 -4.719899,0.88939 -8.514008,4.153899 -9.9912067,8.596587 -0.550158,1.654608 -0.596122,2.022293 -0.644097,5.152406 l -0.04441,2.897443 h 2.5532007 2.5532 z M 25.71733,16.650574 c 2.000985,-0.511766 3.638018,-1.854152 4.546919,-3.728529 0.564371,-1.163871 0.74591,-2.057658 0.687004,-3.382391 -0.07734,-1.739365 -0.648045,-3.0999751 -1.845026,-4.3987178 -2.762336,-2.9971764 -7.450118,-2.9971764 -10.212454,0 -0.752034,0.8159679 -1.152949,1.4841681 -1.516159,2.5269644 -0.373357,1.0719264 -0.458395,2.5343994 -0.213206,3.6666644 0.205834,0.95053 0.849628,2.27492 1.470393,3.024846 0.869362,1.050247 2.264412,1.933749 3.610769,2.286745 0.933598,0.244776 2.524056,0.2468 3.47176,0.0044 z"
       id="path8" /></g></svg>
