<?xml version="1.0" encoding="UTF-8" standalone="no"?>
<!-- Created with Inkscape (http://www.inkscape.org/) -->

<svg
   width="48mm"
   height="48mm"
   viewBox="0 0 48 48"
   version="1.1"
   id="svg1"
   xml:space="preserve"
   inkscape:export-filename="plans.svg"
   inkscape:export-xdpi="89.677864"
   inkscape:export-ydpi="89.677864"
   xmlns:inkscape="http://www.inkscape.org/namespaces/inkscape"
   xmlns:sodipodi="http://sodipodi.sourceforge.net/DTD/sodipodi-0.dtd"
   xmlns="http://www.w3.org/2000/svg"
   xmlns:svg="http://www.w3.org/2000/svg"><sodipodi:namedview
     id="namedview1"
     pagecolor="#ffffff"
     bordercolor="#000000"
     borderopacity="0.25"
     inkscape:showpageshadow="2"
     inkscape:pageopacity="0.0"
     inkscape:pagecheckerboard="0"
     inkscape:deskcolor="#d1d1d1"
     inkscape:document-units="mm"
     showgrid="true"
     showguides="true"><inkscape:grid
       id="grid1"
       units="mm"
       originx="0"
       originy="0"
       spacingx="0.99999997"
       spacingy="0.99999997"
       empcolor="#0099e5"
       empopacity="0.30196078"
       color="#0099e5"
       opacity="0.14901961"
       empspacing="5"
       enabled="true"
       visible="true" /><sodipodi:guide
       position="1.0120818,36.775092"
       orientation="1,0"
       id="guide1"
       inkscape:locked="false" /><sodipodi:guide
       position="13.98513,47.171932"
       orientation="0,-1"
       id="guide2"
       inkscape:locked="false" /><sodipodi:guide
       position="46.923791,30.518586"
       orientation="1,0"
       id="guide3"
       inkscape:locked="false" /><sodipodi:guide
       position="2.0241635,1.0762081"
       orientation="0,-1"
       id="guide4"
       inkscape:locked="false" /><inkscape:page
       x="0"
       y="0"
       width="48"
       height="48"
       id="page2"
       margin="0"
       bleed="0" /></sodipodi:namedview><defs
     id="defs1" /><g
     inkscape:label="Layer 1"
     inkscape:groupmode="layer"
     id="layer1"><path
       style="fill:#4fc29d;fill-opacity:0.434122;stroke-width:0.200369;stroke-linecap:round;stroke-linejoin:round"
       id="path4"
       sodipodi:type="arc"
       sodipodi:cx="30.348515"
       sodipodi:cy="-25.012081"
       sodipodi:rx="8.1598511"
       sodipodi:ry="8.1598511"
       sodipodi:start="0.088054481"
       sodipodi:end="0.079659199"
       sodipodi:open="true"
       sodipodi:arc-type="arc"
       d="m 38.476752,-24.294498 a 8.1598511,8.1598511 0 0 1 -8.828759,7.412142 8.1598511,8.1598511 0 0 1 -7.430656,-8.813183 8.1598511,8.1598511 0 0 1 8.797568,-7.449137 8.1598511,8.1598511 0 0 1 7.467585,8.781915"
       transform="scale(1,-1)" /><path
       style="fill:#253393;fill-opacity:1;stroke-width:0.854533"
       d="M 24.311909,45.572982 C 23.890201,45.466888 23.415482,45.216492 23.198827,44.985874 23.036271,44.81284 22.959831,44.789293 22.781175,44.857217 21.798373,45.230879 20.250764,44.4274 19.976236,43.400965 L 19.871524,43.009458 H 19.22663 c -0.519018,0 -0.740436,-0.04674 -1.134361,-0.239474 -0.885895,-0.433428 -1.492667,-1.2799 -1.622361,-2.26327 l -0.06171,-0.467871 h -0.332234 c -1.215573,0 -2.405319,-1.155492 -2.563314,-2.489514 l -0.05078,-0.428744 -0.467707,-0.04827 c -0.878796,-0.09071 -1.718558,-0.685063 -2.167285,-1.533953 -0.199863,-0.378093 -0.237012,-0.564877 -0.245242,-1.233074 L 10.572036,33.5178 9.5550377,32.917314 C 8.9955929,32.587047 8.3497561,32.207067 8.1197489,32.072915 L 7.7015534,31.829004 7.5611373,32.100537 C 7.4225484,32.36854 7.0969586,32.52471 6.7778435,32.47625 6.5402527,32.440172 1.5197458,29.530802 1.3416277,29.325982 1.2558511,29.227345 1.1856704,29.050175 1.1856704,28.932273 c 0,-0.243049 6.6026856,-11.755603 6.8807513,-11.997396 0.098645,-0.08578 0.2763432,-0.155957 0.3948859,-0.155957 0.2241498,0 5.1829824,2.815014 5.5351444,3.142173 0.253462,0.235466 0.259135,0.618594 0.01501,1.013597 l -0.185505,0.300154 2.168392,0.0024 2.168391,0.0024 1.271295,-0.643459 c 1.203877,-0.609335 1.303952,-0.643722 1.887081,-0.648444 0.570454,-0.0046 0.688114,0.03069 1.598369,0.479758 l 0.982584,0.484745 0.795904,-0.378233 c 1.24689,-0.592554 1.251271,-0.591985 4.972208,0.644045 1.717343,0.570471 3.210686,1.037219 3.318543,1.037219 0.221491,0 1.26637,-0.333794 1.376121,-0.439613 0.03941,-0.038 -0.07086,-0.312287 -0.245077,-0.609523 -0.368386,-0.628554 -0.40121,-0.980161 -0.116219,-1.244918 0.352162,-0.327158 5.310995,-3.142172 5.535143,-3.142172 0.118542,0 0.296242,0.07018 0.394886,0.155958 0.278065,0.241791 6.880752,11.754346 6.880752,11.997394 0,0.117904 -0.07018,0.294724 -0.155959,0.392935 -0.178379,0.204239 -5.201378,3.115419 -5.437123,3.151196 -0.400738,0.06082 -0.625642,-0.103006 -0.995019,-0.724755 l -0.37131,-0.625007 -0.259933,0.134418 c -0.142963,0.07393 -0.7527,0.420097 -1.354973,0.769263 -0.602271,0.349167 -1.365667,0.79178 -1.696438,0.983586 l -0.6014,0.348736 0.192851,0.374908 c 0.267502,0.52003 0.326948,1.575057 0.123296,2.188192 -0.305302,0.919182 -1.313388,1.717469 -2.332453,1.847033 l -0.456432,0.05803 -0.0483,0.467953 c -0.127642,1.236738 -1.177974,2.272073 -2.458888,2.423779 l -0.434407,0.05145 -0.05145,0.434404 c -0.165447,1.39694 -1.209686,2.363166 -2.675206,2.475339 l -0.69929,0.05353 -0.118305,0.345111 c -0.348641,1.017018 -1.655635,1.746231 -2.671681,1.490611 z m 1.136262,-1.703229 c 0.264796,-0.290628 0.326841,-0.748937 0.146904,-1.085153 -0.09222,-0.172308 -0.1379,-0.143972 -0.753088,0.46711 -0.360205,0.357802 -0.63275,0.686414 -0.605657,0.73025 0.199996,0.3236 0.87141,0.261431 1.211841,-0.112207 z m -1.701165,-1.575794 c 1.343233,-1.330972 1.465102,-1.542442 1.192593,-2.069416 -0.183192,-0.354252 -0.649671,-0.589422 -0.997039,-0.502644 -0.1584,0.03958 -0.702551,0.508082 -1.441263,1.240919 -1.069998,1.06149 -1.191702,1.214026 -1.236779,1.550093 -0.0454,0.338446 -0.02107,0.401677 0.264407,0.687149 0.248594,0.248594 0.384726,0.314404 0.65037,0.314404 0.312228,0 0.422994,-0.08623 1.567711,-1.220505 z m 4.708959,-0.227671 c 0.55787,-0.380797 0.76457,-1.080626 0.50096,-1.696113 -0.06755,-0.157726 -0.800401,-0.954686 -1.628549,-1.771027 -1.393543,-1.373667 -1.535448,-1.488693 -1.904623,-1.543829 -0.222196,-0.03317 -0.507457,-0.01819 -0.643971,0.03387 -0.231476,0.08826 -0.245076,0.124555 -0.245076,0.654006 v 0.560558 l 0.432463,0.153598 c 0.982981,0.349123 1.651392,1.519736 1.46042,2.557686 -0.102881,0.559189 -0.08128,0.606157 0.459848,0.999267 0.455179,0.330676 1.127591,0.352959 1.568528,0.05198 z m -8.817208,-0.512502 c 0.236779,-0.06578 0.700094,-0.47119 1.822703,-1.594914 0.827873,-0.828695 1.534382,-1.580824 1.570023,-1.671398 0.129738,-0.329704 0.07917,-0.962615 -0.100428,-1.257195 -0.289737,-0.475204 -0.671276,-0.660697 -1.27866,-0.621645 l -0.520671,0.03348 -1.586565,1.59785 c -1.439041,1.449275 -1.592343,1.633298 -1.648706,1.979095 -0.09178,0.563088 0.221578,1.155404 0.753037,1.423403 0.447281,0.225552 0.540376,0.236028 0.989266,0.111328 z m 11.63496,-2.372556 c 0.565145,-0.268177 0.839602,-0.893042 0.705715,-1.606721 -0.05229,-0.278657 -0.29827,-0.573695 -1.453023,-1.742717 -1.775327,-1.797267 -2.194608,-2.015106 -3.006234,-1.561904 -0.490793,0.274053 -0.798783,0.889531 -0.711548,1.421938 0.0563,0.343596 0.208924,0.529631 1.545548,1.883877 0.815694,0.826448 1.603391,1.556764 1.750436,1.622923 0.362747,0.163212 0.802286,0.156673 1.169106,-0.0174 z M 17.006291,38.455391 c 0.09688,-0.05298 0.824454,-0.751024 1.616835,-1.551229 1.548219,-1.563507 1.64119,-1.715116 1.503104,-2.451164 -0.07822,-0.416927 -0.526708,-0.871509 -0.984562,-0.997929 -0.691547,-0.190946 -0.9205,-0.05172 -2.513855,1.528676 -1.48259,1.470531 -1.717902,1.786574 -1.717902,2.307283 0,1.022793 1.168427,1.671756 2.09638,1.164363 z m 17.243687,-2.270922 c 0.222394,-0.112726 0.468024,-0.326744 0.561019,-0.488822 0.200625,-0.349654 0.215031,-0.979484 0.03037,-1.328171 -0.15786,-0.298098 -2.862575,-2.996588 -3.149055,-3.141806 -0.10706,-0.05427 -0.371826,-0.09868 -0.588369,-0.09868 -0.983212,0 -1.65638,1.138607 -1.191877,2.015963 0.210181,0.396993 2.827216,2.950851 3.178006,3.101286 0.434408,0.186295 0.701589,0.172526 1.159897,-0.05977 z m -9.355528,-0.555779 0.404305,-0.0603 0.09776,-0.514402 c 0.132967,-0.699665 0.355523,-1.137599 0.80875,-1.591408 0.433208,-0.433766 1.029176,-0.721315 1.647359,-0.794838 0.403501,-0.04799 0.423703,-0.06394 0.471482,-0.372125 0.150311,-0.969571 0.553936,-1.672415 1.213616,-2.113296 l 0.413413,-0.276297 -2.003658,-1.506075 c -1.102011,-0.828342 -2.130216,-1.553941 -2.2849,-1.612442 -0.364971,-0.138036 -1.411485,-0.145803 -1.703732,-0.01265 -0.147467,0.06719 -0.493874,0.534434 -0.98249,1.325212 -0.776703,1.257023 -0.940656,1.430736 -1.494709,1.583718 -0.43496,0.120098 -2.294833,-0.104882 -2.803482,-0.339126 -0.53687,-0.247238 -0.86784,-0.775816 -0.857862,-1.37005 0.008,-0.473191 0.867058,-3.619506 1.123724,-4.11539 0.253845,-0.49044 0.893666,-0.964469 2.095093,-1.552214 0.64818,-0.317094 1.17851,-0.603488 1.17851,-0.636432 0,-0.08217 -0.676903,-0.346609 -0.887217,-0.346609 -0.09387,0 -0.760981,0.290749 -1.482485,0.646108 l -1.311821,0.646109 -2.769645,0.04456 -2.769646,0.04455 -2.246793,3.876654 c -1.2357369,2.13216 -2.2490099,3.921087 -2.251716,3.975394 -0.00373,0.07592 2.397538,1.555473 2.785389,1.716181 0.0432,0.01791 0.727396,-0.611984 1.520414,-1.399753 1.699494,-1.68824 1.941927,-1.834279 3.041549,-1.832195 0.570004,0.0011 0.802288,0.04457 1.15854,0.21691 0.867765,0.41979 1.485368,1.266274 1.610139,2.206848 l 0.05947,0.448365 0.52726,0.09287 c 1.348882,0.2376 2.392725,1.391236 2.392725,2.644395 0,0.281151 0.0041,0.283735 0.528341,0.33127 0.562346,0.051 1.274449,0.376642 1.614029,0.738107 0.174955,0.186232 0.21438,0.193402 0.472433,0.08591 0.15485,-0.06451 0.463483,-0.14441 0.68585,-0.177579 z M 14.112677,35.417811 c 0.217911,-0.139826 0.964458,-0.836273 1.658993,-1.547661 0.963324,-0.986701 1.288356,-1.378759 1.370587,-1.653224 0.299164,-0.998519 -0.554365,-1.952023 -1.57764,-1.762427 -0.290182,0.05377 -0.572958,0.291468 -1.842523,1.548825 -0.824851,0.816921 -1.561201,1.602237 -1.636332,1.745145 -0.176919,0.336524 -0.113254,1.051917 0.122207,1.373216 0.428472,0.584673 1.254805,0.713144 1.904708,0.296126 z m 22.987734,-4.36568 c 1.102842,-0.637792 1.997981,-1.192664 1.989199,-1.233049 -0.01406,-0.06465 -3.84232,-6.719163 -3.901571,-6.781951 -0.0128,-0.01355 -0.359728,0.101246 -0.770973,0.255093 -1.327033,0.49647 -1.468963,0.475773 -5.131138,-0.748214 -2.385426,-0.797268 -3.19576,-1.033473 -3.386502,-0.987138 -0.137906,0.03349 -1.444745,0.657103 -2.904087,1.385781 -2.355927,1.176361 -2.668408,1.357187 -2.78769,1.613179 -0.244624,0.524986 -1.020667,3.39793 -0.939718,3.478879 0.141711,0.141711 1.82333,0.323 1.934075,0.208506 0.0541,-0.05593 0.385256,-0.569019 0.735908,-1.140199 1.015344,-1.653904 1.440805,-1.915147 2.990221,-1.836069 0.717704,0.03663 1.025051,0.09439 1.371725,0.257792 0.245729,0.115823 1.821727,1.233222 3.502217,2.483108 2.222962,1.653356 3.336001,2.545556 4.085186,3.274644 0.566359,0.551168 1.069848,0.985731 1.118864,0.965695 0.04901,-0.02004 0.991444,-0.558262 2.094284,-1.196057 z M 9.6119226,25.735327 c 1.5873884,-2.744847 2.8874264,-5.017424 2.8889734,-5.050166 0.0031,-0.06555 -3.7423094,-2.245879 -3.7759795,-2.198116 -0.3378146,0.479197 -5.8469301,10.189408 -5.7920315,10.208872 0.043837,0.01555 0.8617246,0.485843 1.8175204,1.045116 0.9557959,0.55927 1.7912581,1.009674 1.8565837,1.000892 0.065329,-0.0088 1.417545,-2.261749 3.0049335,-5.006598 z M 43.26415,29.729736 c 0.9968,-0.572431 1.825586,-1.050183 1.841747,-1.061671 0.02101,-0.01493 -5.669485,-9.952668 -5.828926,-10.179511 -0.05558,-0.07908 -3.785339,2.160046 -3.750268,2.251441 0.02828,0.07371 5.205603,9.071212 5.733278,9.963688 0.02174,0.03677 0.07378,0.06684 0.115662,0.06684 0.04188,0 0.891705,-0.468354 1.888507,-1.040787 z M 22.952826,19.006576 C 19.526183,18.526641 16.790365,16.107858 15.918164,12.78711 15.731848,12.077753 15.69042,11.713344 15.6881,10.763425 15.6845,9.2575643 15.893413,8.3580844 16.557771,7.0204482 c 0.861242,-1.734047 2.027301,-2.8990128 3.743807,-3.7403005 1.536925,-0.7532724 3.043088,-1.0343436 4.554353,-0.8499065 1.149249,0.1402563 1.740073,0.3172797 2.842481,0.8516651 1.710758,0.8292806 2.886624,2.0032874 3.744458,3.7385419 0.645887,1.3065201 0.872365,2.2514853 0.875714,3.6538568 0.0078,3.269052 -1.718857,6.066754 -4.64953,7.533602 -1.322525,0.661944 -3.300667,0.996932 -4.716228,0.798669 z m 2.740422,-1.568372 c 1.895472,-0.483335 3.598803,-1.844486 4.498714,-3.594977 0.297016,-0.577751 0.580797,-1.55085 0.681684,-2.33752 C 31.053123,10.106223 30.70323,8.443689 29.964096,7.1839384 29.573364,6.517988 28.205351,5.1480762 27.543455,4.7599346 26.834125,4.3439788 25.668467,3.9592434 24.763689,3.8424474 c -1.37219,-0.1771318 -3.047982,0.1785291 -4.29862,0.9123165 -0.669349,0.392727 -2.036448,1.7598256 -2.429175,2.4291745 -0.432511,0.7371542 -0.788981,1.8055201 -0.912848,2.7358696 -0.185249,1.391376 0.166678,3.062241 0.912848,4.333984 0.391145,0.666651 1.758968,2.035983 2.422394,2.425066 1.543744,0.905365 3.53155,1.193703 5.23496,0.759346 z m -3.28391,-4.568632 c -0.562945,-0.608738 -1.706727,-2.313529 -1.706727,-2.543855 0,-0.500879 0.698905,-0.8613982 1.095071,-0.5648757 0.08186,0.061268 0.402453,0.4607077 0.712435,0.8876397 l 0.563604,0.776242 1.900754,-1.556028 c 1.580446,-1.2938106 1.948726,-1.556029 2.185414,-1.556029 0.526251,0 0.875269,0.6798423 0.560802,1.0923738 -0.06126,0.080379 -1.093929,0.9494942 -2.294801,1.9313722 -2.429067,1.986101 -2.543771,2.044399 -3.016552,1.53316 z"
       id="path5" /></g></svg>
